<svg version="1.1" id="el_bUPpRVa_p" image-rendering="optimizeQuality" text-rendering="geometricPrecision" shape-rendering="geometricPrecision" xmlns="http://www.w3.org/2000/svg" xmlns:xlink="http://www.w3.org/1999/xlink" x="0px" y="0px" width="356" height="200" viewBox="0 0 356 200" enable-background="new 0 0 356 200" xml:space="preserve"><style>@-webkit-keyframes el_Bpy7gTrRb6_eTq8fv_4b_Animation{0%{-webkit-transform: translate(350px, 0px);transform: translate(350px, 0px);}100%{-webkit-transform: translate(-150px, 0px);transform: translate(-150px, 0px);}}@keyframes el_Bpy7gTrRb6_eTq8fv_4b_Animation{0%{-webkit-transform: translate(350px, 0px);transform: translate(350px, 0px);}100%{-webkit-transform: translate(-150px, 0px);transform: translate(-150px, 0px);}}@-webkit-keyframes el_hvwHiBENSXB_unCs5lIAa_Animation{0%{-webkit-transform: translate(-300px, 0px);transform: translate(-300px, 0px);}66.67%{-webkit-transform: translate(150px, 0px);transform: translate(150px, 0px);}100%{-webkit-transform: translate(150px, 0px);transform: translate(150px, 0px);}}@keyframes el_hvwHiBENSXB_unCs5lIAa_Animation{0%{-webkit-transform: translate(-300px, 0px);transform: translate(-300px, 0px);}66.67%{-webkit-transform: translate(150px, 0px);transform: translate(150px, 0px);}100%{-webkit-transform: translate(150px, 0px);transform: translate(150px, 0px);}}@-webkit-keyframes el_eb00Yo_74b0_VIifmE1D5_Animation{0%{-webkit-transform: translate(-300px, 0px);transform: translate(-300px, 0px);}100%{-webkit-transform: translate(300px, 0px);transform: translate(300px, 0px);}}@keyframes el_eb00Yo_74b0_VIifmE1D5_Animation{0%{-webkit-transform: translate(-300px, 0px);transform: translate(-300px, 0px);}100%{-webkit-transform: translate(300px, 0px);transform: translate(300px, 0px);}}@-webkit-keyframes el_GZmjndLb9Nm_cHyu2JE6m_Animation{0%{-webkit-transform: translate(0px, 0px);transform: translate(0px, 0px);}33.33%{-webkit-transform: translate(20px, 0px);transform: translate(20px, 0px);}66.67%{-webkit-transform: translate(0px, -10px);transform: translate(0px, -10px);}100%{-webkit-transform: translate(0px, 0px);transform: translate(0px, 0px);}}@keyframes el_GZmjndLb9Nm_cHyu2JE6m_Animation{0%{-webkit-transform: translate(0px, 0px);transform: translate(0px, 0px);}33.33%{-webkit-transform: translate(20px, 0px);transform: translate(20px, 0px);}66.67%{-webkit-transform: translate(0px, -10px);transform: translate(0px, -10px);}100%{-webkit-transform: translate(0px, 0px);transform: translate(0px, 0px);}}#el_bUPpRVa_p *{-webkit-animation-duration: 1.5s;animation-duration: 1.5s;-webkit-animation-iteration-count: infinite;animation-iteration-count: infinite;-webkit-animation-timing-function: cubic-bezier(0, 0, 1, 1);animation-timing-function: cubic-bezier(0, 0, 1, 1);}#el_X5xd8YDfYp{fill: #7676F4;}#el_Bpy7gTrRb6{fill: #BCB2F9;}#el_Uuik4FSee6{fill: #EFE4DA;}#el_q8BNsj3-2-{-webkit-transform: matrix(1, 0, 0, 1, 74.4292, 101.8379);transform: matrix(1, 0, 0, 1, 74.4292, 101.8379);fill: #5765EC;}#el_qmAQp7GHqd{fill: none;stroke: #BCB2F9;stroke-width: 2.7575;}#el_niu79UaiyR{fill: none;stroke: #BCB2F9;stroke-width: 2.7575;}#el_cC56rOm1TP{fill: none;stroke: #BCB2F9;stroke-width: 2.7575;}#el_5-eiMIJGjX{fill: #65D0FC;}#el_z_uOfbrO00{fill: #65D0FC;}#el_LULY7V8jci{fill: #65D0FC;}#el_0CIMqJOtvsI{fill: #F4F4F4;}#el_nqzEjzalXy6{fill: #CDCCD2;}#el_ifgMaCOgw1Z{fill: #4132EA;}#el_t3PEQ_6hCny{fill: #FFFFFF;}#el_OeSjUllN6sY{fill: url(#SVGID_3_);}#el_wl1yVanqbLC{fill: #FFFFFF;}#el_kCkhIDnaw1E{fill: #F7C6BD;}#el_s0smw2p0Fts{fill: #00FFFF;}#el_WwB6JeUCnEs{fill: #00FFFF;}#el_gI4TiZ1eDMr{fill: #00FFFF;}#el_03RT-HDR7EM{fill: #F647A9;}#el_K4zdOEAKboJ{fill: #00FFFF;visibility: hidden;}#el_51rLXNeZgRf{fill: #F4C023;}#el_KMnLGgesJka{fill: #00FFFF;}#el_RkLYoQKia7e{fill: #00FFFF;}#el_9yh-PAOitbB{fill: #00FFFF;}#el_urPZSIkq7z8{fill: #00FFFF;}#el_k4Krt3e3eyt{fill: #00FFFF;}#el_JaHUh4LvbqS{fill: #F4C023;}#el_p3IJYoCFtPl{fill: #00FFFF;}#el_RMfnM6RbzJe{fill: #00FFFF;}#el_a12a5rjcfMu{fill: #00FFFF;}#el_ATtQr1zDBjb{fill: #00FFFF;}#el_2DjXcRpU6aw{fill: #00FFFF;}#el_viyhN3LdI4U{fill: #00FFFF;}#el_sXwhNL4mO5y{fill: #00FFFF;}#el_6jCumKlFAe2{fill: #00FFFF;}#el_YjRBcJvNwHH{fill: #00FFFF;}#el_j4hHYVWwWIS{fill: #F4C023;}#el_4oSe8uw80pO{fill: #00FFFF;}#el_juWF3nrfOxe{fill: #F4C023;}#el_CdGfFq2RTx-{fill: #00FFFF;}#el_xLVBfvT5Gu5{fill: #00FFFF;}#el_XE1C85Kem8T{fill: #00FFFF;}#el_flJnJh1X33m{fill: #00FFFF;}#el_anHRoO-AVfW{fill: #F4C023;}#el_jrlkNkDUNga{fill: #F4C023;}#el_bZyTB3TExzI{fill: #F4C023;}#el_iEzHcrWQo5o{fill: #F4C023;}#el_qqTB6zW3dPt{fill: #00FFFF;}#el_jv5j4nDcLWS{fill: #00FFFF;}#el_S8UDKBP5kfn{fill: #00FFFF;}#el_UUMu1ODIsMh{fill: #00FFFF;}#el_aDdcpWRhCJu{fill: #00FFFF;}#el_h3mVV7UH4Ze{fill: #00FFFF;}#el_IRzB26vdywz{fill: #00FFFF;}#el_wm0FvGysuLM{fill: #00FFFF;}#el_SSl8aGeVNFq{fill: #00FFFF;}#el_V6PVqvcgtVU{fill: #F647A9;}#el_qi8tGdAE1gP{fill: #00FFFF;}#el_qnt-9IryfCE{fill: #BCB2F9;}#el_OLralyUQabw{fill: #BCB2F9;}#el_9c5sSnk9ym3{fill: #BCB2F9;}#el_jf5_bt690BW{fill: #BCB2F9;}#el_latGeCdjg2Y{fill: #BCB2F9;}#el_kO2IM0NQjJB{fill: #BCB2F9;}#el_ke1oWMrel_y{fill: #BCB2F9;}#el_fEJMZ8E4v4J{fill: #BCB2F9;}#el_j2YjEAsnKmf{fill: #BCB2F9;}#el_5_IbzNFI-O3{fill: none;stroke: #BCB2F9;stroke-width: 2.7575;}#el_ydlVl4yYnk5{fill: none;stroke: #BCB2F9;stroke-width: 2.7575;}#el_aCPd0PsRkVM{fill: none;stroke: #BCB2F9;stroke-width: 2.7575;}#el_t8SfeK1zilQ{fill: none;stroke: #BCB2F9;stroke-width: 2.7575;}#el_hvwHiBENSXB{fill: #BCB2F9;}#el_eb00Yo_74b0{fill: #BCB2F9;}#el_OSldCePjRAr{fill: #FFF9F3;}#el_S6hoUKHqnF3{-webkit-transform: matrix(1, 0, 0, 1, 85.4175, 88.374);transform: matrix(1, 0, 0, 1, 85.4175, 88.374);fill: #5765EC;}#el_OsI0vG-uv8D{fill: #EFE4DA;}#el_4Sg48gxGvVe{fill: #5765EC;}#el_fsp3gN2wsbc{fill: #5765EC;}#el_DjqdPehhvDE{fill: #5765EC;}#el_w00wfbVNkLo{fill: #FFF9F3;}#el_CVD_EKN3Uwr{-webkit-transform: matrix(1, 0, 0, 1, 268.2793, 116.0908);transform: matrix(1, 0, 0, 1, 268.2793, 116.0908);fill: #5765EC;}#el_Ii1gcKGnYqa{fill: #FFFFFF;}#el_0_NTg8N6SCR{fill: #CCCDCF;}#el_gQcjMGNGJ7Y{fill: #BCB2F9;}#el_GhAn9CbtLuL{fill: #BCB2F9;}#el_PIVhHMM2gyz{fill: #BCB2F9;}#el_2T1YiRUDjJI{fill: #BCB2F9;}#el_FcIS3ftKN3A{fill: #BCB2F9;}#el_54Y3t-ftx3k{fill: #BCB2F9;}#el_Ogl09TQYsdX{fill: #BCB2F9;}#el__sYhdr9P2jo{fill: #BCB2F9;}#el_8PKlDP9PthH{fill: #BCB2F9;}#el_RG6FACPeTxg{fill: #BCB2F9;}#el_35vRcG1z1Vw{fill: #BCB2F9;}#el_xR7-K7dfsar{fill: #BCB2F9;}#el_gCRWMrGBART{fill: #BCB2F9;}#el_8WQRxNdfQqu{fill: #BCB2F9;}#el_6wWnoTmy7_6{fill: #BCB2F9;}#el_jShOsQuY91L{fill: #BCB2F9;}#el_EDP-XBsW3Zz{fill: #BCB2F9;}#el_qGX67VUsr_l{fill: #BCB2F9;}#el_NT9hGRMqQeb{fill: #BCB2F9;}#el_iNOQhdSZaZ7{fill: #BCB2F9;}#el_n1CXSAp93d1{fill: #BCB2F9;}#el_QYgaj3y7aaB{fill: #BCB2F9;}#el_EgEWZxbr8yc{fill: #BCB2F9;}#el_sLrnVxEnsHM{fill: #BCB2F9;}#el_6mKeckKQsUO{fill: #BCB2F9;}#el_o8BmFZb3NwK{fill: #BCB2F9;}#el_PoCK0W2GAnx{fill: #BCB2F9;}#el_koojd2VpTux{fill: #BCB2F9;}#el_AFv0pemUDpz{fill: #BCB2F9;}#el_AuFzUNmirR6{fill: #BCB2F9;}#el_NGlVSQ0gXXP{-webkit-transform: matrix(1, 0, 0, 1, 197.5957, 160.5234);transform: matrix(1, 0, 0, 1, 197.5957, 160.5234);fill: #BCB2F9;}#el_ypxWb7zwHlD{fill: #CCCDCF;}#el_tbxtsyTLmEz{fill: #FFFFFF;}#el_wvq9afW3QCA{fill: #FFFFFF;}#el_fxwO2FgKkEk{fill: #FFFFFF;}#el_Ii1gcKGnYqa_m60RzpkN-{-webkit-transform-origin: 50% 50%;transform-origin: 50% 50%;transform-box: fill-box;-webkit-transform: translate(0px, 0px);transform: translate(0px, 0px);}#el_GZmjndLb9Nm_cHyu2JE6m{-webkit-animation-name: el_GZmjndLb9Nm_cHyu2JE6m_Animation;animation-name: el_GZmjndLb9Nm_cHyu2JE6m_Animation;-webkit-transform-origin: 50% 50%;transform-origin: 50% 50%;transform-box: fill-box;-webkit-transform: translate(0px, 0px);transform: translate(0px, 0px);}#el_eb00Yo_74b0_VIifmE1D5{-webkit-animation-name: el_eb00Yo_74b0_VIifmE1D5_Animation;animation-name: el_eb00Yo_74b0_VIifmE1D5_Animation;-webkit-transform-origin: 50% 50%;transform-origin: 50% 50%;transform-box: fill-box;}#el_hvwHiBENSXB_unCs5lIAa{-webkit-animation-name: el_hvwHiBENSXB_unCs5lIAa_Animation;animation-name: el_hvwHiBENSXB_unCs5lIAa_Animation;-webkit-transform-origin: 50% 50%;transform-origin: 50% 50%;transform-box: fill-box;}#el_Bpy7gTrRb6_eTq8fv_4b{-webkit-animation-name: el_Bpy7gTrRb6_eTq8fv_4b_Animation;animation-name: el_Bpy7gTrRb6_eTq8fv_4b_Animation;-webkit-transform-origin: 50% 50%;transform-origin: 50% 50%;transform-box: fill-box;}</style>
<rect width="356" height="200" id="el_X5xd8YDfYp"/>
<g id="el_xwPA58Ou2d">
	<g id="el_Bpy7gTrRb6_eTq8fv_4b" data-animator-group="true" data-animator-type="0"><path d="M74.704,122.273c0-5.932,4.622-10.321,10.32-10.321c2.352,0,4.517,0.748,6.252,2.041&#10;&#9;&#9;c2.653-4.16,7.308-6.905,12.61-6.905c8.255,0,14.946,6.645,14.946,14.946L74.704,122.273z" id="el_Bpy7gTrRb6"/></g>
	<g id="el_Fc4XnLogA6">
		<g id="el__Gtf7cqUDY">
			<path d="M70.434,105.481c-1.877-2.328-2.681-5.476-1.902-8.602c1.32-5.299,6.683-8.525,11.982-7.205&#10;&#9;&#9;&#9;&#9;c5.299,1.319,8.525,6.684,7.206,11.982c-1.319,5.3-6.684,8.524-11.983,7.206c-1.173-0.292-2.244-0.783-3.187-1.428l-3.793,2.037&#10;&#9;&#9;&#9;&#9;L70.434,105.481z" id="el_Uuik4FSee6"/>
		</g>
		<text font-family="'FamiliarPro-Bold'" font-size="6.2476" id="el_q8BNsj3-2-">01</text>
	</g>
	
		<line stroke-linecap="round" stroke-linejoin="round" stroke-miterlimit="10" stroke-dasharray="5.515" x1="237.386" y1="96.284" x2="267.062" y2="96.284" id="el_qmAQp7GHqd"/>
	
		<line stroke-linecap="round" stroke-linejoin="round" stroke-miterlimit="10" stroke-dasharray="5.515" x1="65.751" y1="132.381" x2="108.963" y2="132.381" id="el_niu79UaiyR"/>
	
		<line stroke-linecap="round" stroke-linejoin="round" stroke-miterlimit="10" stroke-dasharray="5.515" x1="247.454" y1="50.468" x2="277.13" y2="50.468" id="el_cC56rOm1TP"/>
	<g id="el_dgwsmn618P">
		<g id="el_uOaXGIolQ3">
			<path d="M175.993,19.368c-0.163-0.156-0.106-0.482,0.139-0.697c3.883-3.49,9.812-3.423,13.615,0.149&#10;&#9;&#9;&#9;&#9;c0.241,0.225,0.292,0.548,0.126,0.702c-0.271,0.256-0.542,0.513-0.81,0.77c-0.165,0.154-0.448,0.121-0.64-0.057&#10;&#9;&#9;&#9;&#9;c-3.072-2.888-7.861-2.941-10.999-0.126c-0.194,0.175-0.478,0.202-0.64,0.044C176.521,19.894,176.257,19.631,175.993,19.368z" id="el_5-eiMIJGjX"/>
			<path d="M173.311,16.39c-0.164-0.158-0.035-0.555,0.3-0.854c5.341-4.798,13.496-4.709,18.729,0.21&#10;&#9;&#9;&#9;&#9;c0.328,0.307,0.447,0.704,0.283,0.857c-0.271,0.258-0.541,0.513-0.81,0.769c-0.167,0.155-0.52,0.047-0.799-0.215&#10;&#9;&#9;&#9;&#9;c-4.5-4.229-11.516-4.306-16.111-0.178c-0.287,0.255-0.64,0.352-0.803,0.195C173.837,16.911,173.573,16.648,173.311,16.39z" id="el_z_uOfbrO00"/>
			<path d="M169.958,13.4c-0.163-0.157,0.053-0.643,0.503-1.045c7.158-6.43,18.085-6.309,25.097,0.279&#10;&#9;&#9;&#9;&#9;c0.443,0.415,0.646,0.904,0.481,1.058c-0.271,0.259-0.537,0.511-0.808,0.768c-0.167,0.154-0.604-0.045-0.995-0.412&#10;&#9;&#9;&#9;&#9;c-6.283-5.899-16.072-6.008-22.484-0.251c-0.398,0.359-0.84,0.548-1.002,0.391C170.484,13.925,170.22,13.663,169.958,13.4z" id="el_LULY7V8jci"/>
		</g>
	</g>
	<g id="el_PiKpJFD6Y8Q">
		<rect x="164.618" y="134.049" width="34.823" height="13.709" id="el_0CIMqJOtvsI"/>
		<rect x="164.618" y="134.049" width="34.823" height="13.709" id="el_nqzEjzalXy6"/>
		<g id="el_3IINJZn7pSf">
			<defs>
				<path id="SVGID_1_" d="M253.046,34.679H114.052c-3.002,0-6.718,1.768-6.718,5.501v86.722v3.04v4.002&#10;&#9;&#9;&#9;&#9;&#9;c0,3.396,3.716,6.836,6.718,6.836h138.994c3.003,0,3.678-3.439,3.678-6.836v-5.212v-1.83V40.18&#10;&#9;&#9;&#9;&#9;&#9;C256.724,36.446,256.049,34.679,253.046,34.679z"/>
			</defs>
			<use xlink:href="#SVGID_1_" overflow="visible" id="el_ifgMaCOgw1Z"/>
			<clipPath id="SVGID_2_">
				<use xlink:href="#SVGID_1_" overflow="visible"/>
			</clipPath>
			<path clip-path="url(#SVGID_2_)" d="M107.334,126.901v7.042c0,3.396,3.716,6.836,6.718,6.836h138.994&#10;&#9;&#9;&#9;&#9;c3.003,0,3.678-3.439,3.678-6.836v-7.042" id="el_t3PEQ_6hCny"/>
			<linearGradient id="SVGID_3_" gradientUnits="userSpaceOnUse" x1="181.7559" y1="37.2036" x2="181.2089" y2="178.5001">
				<stop offset="0" style="stop-color:#1E1F88"/>
				<stop offset="1" style="stop-color:#19002B"/>
			</linearGradient>
			<rect x="111.431" y="40.69" clip-path="url(#SVGID_2_)" width="140.312" height="80.246" id="el_OeSjUllN6sY"/>
		</g>
		<path d="M208.449,149.745c0,1.19-0.964,2.157-2.156,2.157h-48.528c-1.191,0-2.156-0.967-2.156-2.157l0,0&#10;&#9;&#9;&#9;c0-1.188,0.965-2.153,2.156-2.153h48.528C207.485,147.592,208.449,148.557,208.449,149.745L208.449,149.745z" id="el_wl1yVanqbLC"/>
		<path d="M147.83,105.502" id="el_kCkhIDnaw1E"/>
		<rect x="230.429" y="43.294" width="9.372" height="1.562" id="el_s0smw2p0Fts"/>
		<rect x="241.363" y="43.294" width="8.33" height="1.562" id="el_WwB6JeUCnEs"/>
		<rect x="220.537" y="43.294" width="8.33" height="1.562" id="el_gI4TiZ1eDMr"/>
		<path d="M165.974,49.6h-50.502c-0.716,0-1.302-0.586-1.302-1.301l0,0c0-0.716,0.586-1.302,1.302-1.302h50.502&#10;&#9;&#9;&#9;c0.715,0,1.301,0.586,1.301,1.302l0,0C167.275,49.014,166.689,49.6,165.974,49.6z" id="el_03RT-HDR7EM"/>
		<path d="M132.174,54.807h-17.318c-0.377,0-0.686-0.31-0.686-0.687v-0.679c0-0.377,0.309-0.686,0.686-0.686h17.318&#10;&#9;&#9;&#9;c0.376,0,0.686,0.309,0.686,0.686v0.679C132.859,54.497,132.55,54.807,132.174,54.807z" id="el_K4zdOEAKboJ"/>
		<path d="M132.521,72.855h-17.318c-0.377,0-0.686-0.309-0.686-0.686v-0.679c0-0.377,0.309-0.686,0.686-0.686h17.318&#10;&#9;&#9;&#9;c0.376,0,0.686,0.309,0.686,0.686v0.679C133.207,72.547,132.897,72.855,132.521,72.855z" id="el_51rLXNeZgRf"/>
		<path d="M171.048,104.439h-17.319c-0.376,0-0.684-0.307-0.684-0.684v-0.681c0-0.376,0.308-0.685,0.684-0.685&#10;&#9;&#9;&#9;h17.319c0.377,0,0.686,0.309,0.686,0.685v0.681C171.733,104.133,171.425,104.439,171.048,104.439z" id="el_KMnLGgesJka"/>
		<path d="M166.535,98.887h-17.318c-0.377,0-0.685-0.31-0.685-0.686v-0.679c0-0.377,0.308-0.686,0.685-0.686h17.318&#10;&#9;&#9;&#9;c0.377,0,0.686,0.309,0.686,0.686v0.679C167.221,98.577,166.912,98.887,166.535,98.887z" id="el_RkLYoQKia7e"/>
		<path d="M165.147,66.261h-17.318c-0.377,0-0.686-0.309-0.686-0.686v-0.68c0-0.377,0.309-0.686,0.686-0.686h17.318&#10;&#9;&#9;&#9;c0.376,0,0.685,0.309,0.685,0.686v0.68C165.833,65.952,165.523,66.261,165.147,66.261z" id="el_9yh-PAOitbB"/>
		<path d="M132.722,103.729h-17.319c-0.377,0-0.685-0.308-0.685-0.686v-0.679c0-0.377,0.308-0.685,0.685-0.685&#10;&#9;&#9;&#9;h17.319c0.376,0,0.684,0.308,0.684,0.685v0.679C133.406,103.422,133.099,103.729,132.722,103.729z" id="el_urPZSIkq7z8"/>
		<path d="M183.89,55.153h-17.317c-0.378,0-0.686-0.309-0.686-0.686v-0.68c0-0.377,0.308-0.685,0.686-0.685h17.317&#10;&#9;&#9;&#9;c0.379,0,0.685,0.308,0.685,0.685v0.68C184.574,54.845,184.269,55.153,183.89,55.153z" id="el_k4Krt3e3eyt"/>
		<path d="M147.19,54.802h-11.431c-0.31,0-0.563-0.255-0.563-0.564v-0.935c0-0.31,0.253-0.563,0.563-0.563h11.431&#10;&#9;&#9;&#9;c0.309,0,0.563,0.253,0.563,0.563v0.935C147.752,54.547,147.499,54.802,147.19,54.802z" id="el_JaHUh4LvbqS"/>
		<path d="M144.76,66.081h-11.43c-0.311,0-0.563-0.253-0.563-0.563v-0.934c0-0.311,0.253-0.564,0.563-0.564h11.43&#10;&#9;&#9;&#9;c0.31,0,0.563,0.254,0.563,0.564v0.934C145.323,65.828,145.07,66.081,144.76,66.081z" id="el_p3IJYoCFtPl"/>
		<path d="M127,98.182h-11.43c-0.31,0-0.563-0.253-0.563-0.563v-0.935c0-0.311,0.253-0.563,0.563-0.563H127&#10;&#9;&#9;&#9;c0.311,0,0.563,0.252,0.563,0.563v0.935C127.564,97.929,127.311,98.182,127,98.182z" id="el_RMfnM6RbzJe"/>
		<path d="M161.421,61.049H149.99c-0.31,0-0.563-0.254-0.563-0.563v-0.935c0-0.311,0.253-0.564,0.563-0.564h11.431&#10;&#9;&#9;&#9;c0.31,0,0.563,0.254,0.563,0.564v0.935C161.983,60.795,161.73,61.049,161.421,61.049z" id="el_a12a5rjcfMu"/>
		<path d="M126.71,78.751h-11.429c-0.311,0-0.563-0.255-0.563-0.564v-0.934c0-0.311,0.253-0.563,0.563-0.563h11.429&#10;&#9;&#9;&#9;c0.311,0,0.563,0.253,0.563,0.563v0.934C127.274,78.496,127.021,78.751,126.71,78.751z" id="el_ATtQr1zDBjb"/>
		<path d="M181.205,98.882h-11.431c-0.31,0-0.563-0.253-0.563-0.564v-0.934c0-0.309,0.254-0.563,0.563-0.563h11.431&#10;&#9;&#9;&#9;c0.31,0,0.563,0.255,0.563,0.563v0.934C181.768,98.629,181.515,98.882,181.205,98.882z" id="el_2DjXcRpU6aw"/>
		<path d="M194.842,55.142h-5.82c-0.237,0-0.43-0.192-0.43-0.43v-1.401c0-0.236,0.192-0.43,0.43-0.43h5.82&#10;&#9;&#9;&#9;c0.237,0,0.431,0.193,0.431,0.43v1.401C195.272,54.949,195.079,55.142,194.842,55.142z" id="el_viyhN3LdI4U"/>
		<path d="M183.55,66.351h-5.822c-0.236,0-0.431-0.193-0.431-0.431v-1.401c0-0.236,0.194-0.432,0.431-0.432h5.822&#10;&#9;&#9;&#9;c0.235,0,0.43,0.195,0.43,0.432v1.401C183.979,66.157,183.785,66.351,183.55,66.351z" id="el_sXwhNL4mO5y"/>
		<path d="M120.725,66.283h-5.821c-0.238,0-0.431-0.192-0.431-0.43v-1.402c0-0.236,0.193-0.431,0.431-0.431h5.821&#10;&#9;&#9;&#9;c0.237,0,0.431,0.194,0.431,0.431v1.402C121.156,66.091,120.962,66.283,120.725,66.283z" id="el_6jCumKlFAe2"/>
		<path d="M136.479,61.054h-5.821c-0.236,0-0.431-0.193-0.431-0.431v-1.401c0-0.236,0.195-0.43,0.431-0.43h5.821&#10;&#9;&#9;&#9;c0.237,0,0.431,0.193,0.431,0.43v1.401C136.909,60.86,136.715,61.054,136.479,61.054z" id="el_YjRBcJvNwHH"/>
		<path d="M141.898,72.946h-5.821c-0.237,0-0.431-0.195-0.431-0.433v-1.401c0-0.236,0.194-0.43,0.431-0.43h5.821&#10;&#9;&#9;&#9;c0.237,0,0.431,0.193,0.431,0.43v1.401C142.329,72.751,142.135,72.946,141.898,72.946z" id="el_j4hHYVWwWIS"/>
		<path d="M150.922,104.531h-5.821c-0.236,0-0.43-0.193-0.43-0.432v-1.4c0-0.237,0.194-0.432,0.43-0.432h5.821&#10;&#9;&#9;&#9;c0.237,0,0.431,0.194,0.431,0.432v1.4C151.353,104.338,151.159,104.531,150.922,104.531z" id="el_4oSe8uw80pO"/>
		<path d="M130.097,66.283h-5.821c-0.238,0-0.431-0.192-0.431-0.43v-1.402c0-0.236,0.193-0.431,0.431-0.431h5.821&#10;&#9;&#9;&#9;c0.236,0,0.431,0.194,0.431,0.431v1.402C130.528,66.091,130.333,66.283,130.097,66.283z" id="el_juWF3nrfOxe"/>
		<path d="M141.898,104.184h-5.821c-0.237,0-0.431-0.194-0.431-0.431v-1.401c0-0.237,0.194-0.432,0.431-0.432h5.821&#10;&#9;&#9;&#9;c0.237,0,0.431,0.194,0.431,0.432v1.401C142.329,103.989,142.135,104.184,141.898,104.184z" id="el_CdGfFq2RTx-"/>
		<path d="M135.304,78.847h-5.821c-0.238,0-0.431-0.194-0.431-0.431v-1.402c0-0.237,0.193-0.431,0.431-0.431h5.821&#10;&#9;&#9;&#9;c0.236,0,0.43,0.193,0.43,0.431v1.402C135.734,78.652,135.54,78.847,135.304,78.847z" id="el_xLVBfvT5Gu5"/>
		<path d="M145.715,61.145h-5.821c-0.236,0-0.43-0.193-0.43-0.431v-1.401c0-0.237,0.194-0.432,0.43-0.432h5.821&#10;&#9;&#9;&#9;c0.238,0,0.431,0.194,0.431,0.432v1.401C146.146,60.951,145.953,61.145,145.715,61.145z" id="el_XE1C85Kem8T"/>
		<path d="M173.83,66.351h-5.821c-0.237,0-0.431-0.193-0.431-0.431v-1.401c0-0.236,0.194-0.432,0.431-0.432h5.821&#10;&#9;&#9;&#9;c0.237,0,0.431,0.195,0.431,0.432v1.401C174.261,66.157,174.067,66.351,173.83,66.351z" id="el_flJnJh1X33m"/>
		<path d="M133.215,93.334h-17.318c-0.377,0-0.686-0.308-0.686-0.686v-0.68c0-0.377,0.308-0.686,0.686-0.686h17.318&#10;&#9;&#9;&#9;c0.377,0,0.686,0.309,0.686,0.686v0.68C133.9,93.026,133.592,93.334,133.215,93.334z" id="el_anHRoO-AVfW"/>
		<path d="M151.096,93.424h-5.821c-0.237,0-0.431-0.194-0.431-0.43v-1.402c0-0.238,0.193-0.431,0.431-0.431h5.821&#10;&#9;&#9;&#9;c0.237,0,0.43,0.192,0.43,0.431v1.402C151.526,93.229,151.333,93.424,151.096,93.424z" id="el_jrlkNkDUNga"/>
		<path d="M142.418,93.424h-5.821c-0.236,0-0.43-0.194-0.43-0.43v-1.402c0-0.238,0.194-0.431,0.43-0.431h5.821&#10;&#9;&#9;&#9;c0.237,0,0.431,0.192,0.431,0.431v1.402C142.849,93.229,142.655,93.424,142.418,93.424z" id="el_bZyTB3TExzI"/>
		<path d="M171.047,61.145h-4.419c-0.622,0-1.132-0.51-1.132-1.132l0,0c0-0.622,0.51-1.132,1.132-1.132h4.419&#10;&#9;&#9;&#9;c0.622,0,1.131,0.51,1.131,1.132l0,0C172.178,60.635,171.669,61.145,171.047,61.145z" id="el_iEzHcrWQo5o"/>
		<path d="M135.863,98.721h-4.419c-0.623,0-1.132-0.51-1.132-1.132l0,0c0-0.622,0.51-1.132,1.132-1.132h4.419&#10;&#9;&#9;&#9;c0.622,0,1.132,0.51,1.132,1.132l0,0C136.995,98.211,136.485,98.721,135.863,98.721z" id="el_qqTB6zW3dPt"/>
		<path d="M180.52,61.212h-4.417c-0.623,0-1.133-0.509-1.133-1.131l0,0c0-0.622,0.51-1.132,1.133-1.132h4.417&#10;&#9;&#9;&#9;c0.623,0,1.133,0.51,1.133,1.132l0,0C181.652,60.703,181.143,61.212,180.52,61.212z" id="el_jv5j4nDcLWS"/>
		<path d="M145.142,98.54h-4.419c-0.622,0-1.132-0.509-1.132-1.132l0,0c0-0.622,0.51-1.131,1.132-1.131h4.419&#10;&#9;&#9;&#9;c0.623,0,1.132,0.509,1.132,1.131l0,0C146.273,98.031,145.765,98.54,145.142,98.54z" id="el_S8UDKBP5kfn"/>
		<path d="M190.675,61.216h-4.419c-0.622,0-1.131-0.51-1.131-1.132l0,0c0-0.622,0.509-1.131,1.131-1.131h4.419&#10;&#9;&#9;&#9;c0.621,0,1.131,0.509,1.131,1.131l0,0C191.806,60.706,191.296,61.216,190.675,61.216z" id="el_UUMu1ODIsMh"/>
		<path d="M144.565,79.125h-4.419c-0.623,0-1.132-0.509-1.132-1.132l0,0c0-0.622,0.509-1.131,1.132-1.131h4.419&#10;&#9;&#9;&#9;c0.622,0,1.13,0.509,1.13,1.131l0,0C145.696,78.616,145.187,79.125,144.565,79.125z" id="el_aDdcpWRhCJu"/>
		<path d="M179.377,104.531h-4.42c-0.621,0-1.131-0.51-1.131-1.131l0,0c0-0.625,0.51-1.133,1.131-1.133h4.42&#10;&#9;&#9;&#9;c0.623,0,1.131,0.508,1.131,1.133l0,0C180.508,104.021,180,104.531,179.377,104.531z" id="el_h3mVV7UH4Ze"/>
		<path d="M154.039,79.193h-4.419c-0.622,0-1.131-0.51-1.131-1.132l0,0c0-0.622,0.51-1.131,1.131-1.131h4.419&#10;&#9;&#9;&#9;c0.622,0,1.132,0.509,1.132,1.131l0,0C155.171,78.684,154.661,79.193,154.039,79.193z" id="el_IRzB26vdywz"/>
		<path d="M164.193,79.197h-4.419c-0.622,0-1.132-0.509-1.132-1.133l0,0c0-0.621,0.51-1.131,1.132-1.131h4.419&#10;&#9;&#9;&#9;c0.622,0,1.131,0.51,1.131,1.131l0,0C165.324,78.688,164.815,79.197,164.193,79.197z" id="el_wm0FvGysuLM"/>
		<path d="M151.379,54.802c-0.31,0-0.563-0.255-0.563-0.564v-0.935c0-0.31,0.253-0.563,0.563-0.563h11.43&#10;&#9;&#9;&#9;c0.31,0,0.563,0.253,0.563,0.563v0.935c0,0.31-0.253,0.564-0.563,0.564" id="el_SSl8aGeVNFq"/>
		<circle cx="182.064" cy="37.896" r="1.042" id="el_V6PVqvcgtVU"/>
		<path d="M114.934,60.875c-0.31,0-0.563-0.253-0.563-0.563v-0.935c0-0.31,0.253-0.563,0.563-0.563h11.43&#10;&#9;&#9;&#9;c0.311,0,0.563,0.254,0.563,0.563v0.935c0,0.31-0.253,0.563-0.563,0.563" id="el_qi8tGdAE1gP"/>
		<g id="el_RB1_EQKQCp-">
			<defs>
				<path id="SVGID_4_" d="M253.046,34.679H114.052c-3.002,0-6.718,1.768-6.718,5.501v86.722v3.04v4.002&#10;&#9;&#9;&#9;&#9;&#9;c0,3.396,3.716,6.836,6.718,6.836h138.994c3.003,0,3.678-3.439,3.678-6.836v-5.212v-1.83V40.18&#10;&#9;&#9;&#9;&#9;&#9;C256.724,36.446,256.049,34.679,253.046,34.679z"/>
			</defs>
			<clipPath id="SVGID_5_">
				<use xlink:href="#SVGID_4_" overflow="visible"/>
			</clipPath>
		</g>
	</g>
	<g id="el_v5OzI-Plehh">
		<g id="el_F2H09V0Vz3Y">
			<path d="M150.614,159.352c3.224,0,3.224-5,0-5S147.39,159.352,150.614,159.352L150.614,159.352z" id="el_qnt-9IryfCE"/>
		</g>
	</g>
	<g id="el_Kkc4ynmB-Fr">
		<g id="el_xR3V3wKnlan">
			<path d="M162.068,159.352c3.224,0,3.224-5,0-5S158.844,159.352,162.068,159.352L162.068,159.352z" id="el_OLralyUQabw"/>
		</g>
	</g>
	<g id="el_wM5koAEMFWS">
		<g id="el_Q8Drycvb6al">
			<path d="M223.504,154.144c3.225,0,3.225-5,0-5S220.279,154.144,223.504,154.144L223.504,154.144z" id="el_9c5sSnk9ym3"/>
		</g>
	</g>
	<g id="el_kJL0gSwmKgt">
		<g id="el_nzZlh4IkKtB">
			<path d="M230.272,154.144c3.225,0,3.225-5,0-5S227.048,154.144,230.272,154.144L230.272,154.144z" id="el_jf5_bt690BW"/>
		</g>
	</g>
	<g id="el_VB00fHW62km">
		<g id="el_NwJXGaHKqJl">
			<path d="M71.862,139.317c3.224,0,3.224-5,0-5S68.638,139.317,71.862,139.317L71.862,139.317z" id="el_latGeCdjg2Y"/>
		</g>
	</g>
	<g id="el_9lPTcfVNmqf">
		<g id="el_OpkJHvP7Yby">
			<path d="M65.961,139.317c3.224,0,3.224-5,0-5S62.737,139.317,65.961,139.317L65.961,139.317z" id="el_kO2IM0NQjJB"/>
		</g>
	</g>
	<g id="el_ZqXlLwt-z1M">
		<g id="el_mgw38Oy1BMh">
			<path d="M77.589,139.317c3.224,0,3.224-5,0-5S74.365,139.317,77.589,139.317L77.589,139.317z" id="el_ke1oWMrel_y"/>
		</g>
	</g>
	<g id="el_jenMaQWlm5b">
		<g id="el_7GQLhD-Jf9z">
			<g id="el_Zx7hYMQNWHg">
				<path d="M88.138,49.497c3.224,0,3.224-5,0-5S84.914,49.497,88.138,49.497L88.138,49.497z" id="el_fEJMZ8E4v4J"/>
			</g>
		</g>
		<g id="el_DdxHKehNUpI">
			<g id="el_IwwYwpuq-sQ">
				<path d="M82.932,49.497c3.224,0,3.224-5,0-5S79.708,49.497,82.932,49.497L82.932,49.497z" id="el_j2YjEAsnKmf"/>
			</g>
		</g>
	</g>
	
		<line stroke-linecap="round" stroke-linejoin="round" stroke-miterlimit="10" stroke-dasharray="5.515" x1="219.34" y1="145.398" x2="233.396" y2="145.398" id="el_5_IbzNFI-O3"/>
	
		<line stroke-linecap="round" stroke-linejoin="round" stroke-miterlimit="10" stroke-dasharray="5.515" x1="239.646" y1="145.398" x2="269.32" y2="145.398" id="el_ydlVl4yYnk5"/>
	<g id="el_j-6yZX4vQK1">
		
			<line stroke-linecap="round" stroke-linejoin="round" stroke-miterlimit="10" stroke-dasharray="5.515" x1="232.354" y1="24.957" x2="262.032" y2="24.957" id="el_aCPd0PsRkVM"/>
		
			<line stroke-linecap="round" stroke-linejoin="round" stroke-miterlimit="10" stroke-dasharray="5.515" x1="267.237" y1="24.957" x2="281.294" y2="24.957" id="el_t8SfeK1zilQ"/>
		<g id="el_hvwHiBENSXB_unCs5lIAa" data-animator-group="true" data-animator-type="0"><path d="M237.491,21.79c0-5.931,4.62-10.32,10.318-10.32c2.353,0,4.518,0.749,6.253,2.041&#10;&#9;&#9;&#9;c2.652-4.161,7.309-6.904,12.608-6.904c8.255,0,14.948,6.643,14.948,14.945L237.491,21.79z" id="el_hvwHiBENSXB"/></g>
	</g>
	<g id="el_eb00Yo_74b0_VIifmE1D5" data-animator-group="true" data-animator-type="0"><path d="M106.398,34.891c0-8.452,6.585-14.709,14.708-14.709c3.351,0,6.437,1.067,8.91,2.91&#10;&#9;&#9;c3.781-5.932,10.415-9.84,17.971-9.84c11.764,0,21.302,9.467,21.302,21.303L106.398,34.891z" id="el_eb00Yo_74b0"/></g>
	<g id="el_KrTstNsPaPp">
		<g id="el_X923y3_8XDP">
			<path d="M102.47,93.083c2.433-3.019,3.476-7.103,2.467-11.156c-1.712-6.873-8.668-11.057-15.542-9.345&#10;&#9;&#9;&#9;&#9;c-6.874,1.711-11.057,8.669-9.345,15.543c1.711,6.872,8.67,11.057,15.543,9.345c1.521-0.378,2.91-1.015,4.132-1.85l4.921,2.641&#10;&#9;&#9;&#9;&#9;L102.47,93.083z" id="el_OSldCePjRAr"/>
		</g>
		<text font-family="'FamiliarPro-Bold'" font-size="13.0221" id="el_S6hoUKHqnF3">{ }</text>
	</g>
	<g id="el_d6g5Zj9pX0d">
		<g id="el_8poKE1cPiGY">
			<path d="M269.818,83.992c-0.194-2.239,0.626-4.539,2.421-6.161c3.044-2.751,7.741-2.514,10.493,0.532&#10;&#9;&#9;&#9;&#9;c2.75,3.043,2.512,7.741-0.533,10.493c-3.043,2.751-7.741,2.513-10.493-0.532c-0.608-0.675-1.07-1.429-1.39-2.227l-3.218-0.32&#10;&#9;&#9;&#9;&#9;L269.818,83.992z" id="el_OsI0vG-uv8D"/>
		</g>
		<g id="el_NOqaLffNHUn">
			<path d="M280.645,81.75h-6.768c-0.288,0-0.521-0.234-0.521-0.521l0,0c0-0.286,0.232-0.521,0.521-0.521h6.768&#10;&#9;&#9;&#9;&#9;c0.286,0,0.52,0.234,0.52,0.521l0,0C281.164,81.516,280.931,81.75,280.645,81.75z" id="el_4Sg48gxGvVe"/>
			<path d="M280.645,84.092h-6.768c-0.288,0-0.521-0.234-0.521-0.521l0,0c0-0.285,0.232-0.521,0.521-0.521h6.768&#10;&#9;&#9;&#9;&#9;c0.286,0,0.52,0.235,0.52,0.521l0,0C281.164,83.857,280.931,84.092,280.645,84.092z" id="el_fsp3gN2wsbc"/>
			<path d="M280.645,86.436h-6.768c-0.288,0-0.521-0.234-0.521-0.521l0,0c0-0.286,0.232-0.521,0.521-0.521h6.768&#10;&#9;&#9;&#9;&#9;c0.286,0,0.52,0.235,0.52,0.521l0,0C281.164,86.201,280.931,86.436,280.645,86.436z" id="el_DjqdPehhvDE"/>
		</g>
	</g>
	<g id="el_qDIbUfYgKwb">
		<g id="el_7E6eKIFEvXZ">
			<g id="el_qj_okr1KKpy">
				<path d="M264.707,113.773c-0.495-3.846,0.754-7.872,3.736-10.797c5.056-4.963,13.172-4.886,18.134,0.17&#10;&#9;&#9;&#9;&#9;&#9;s4.885,13.174-0.169,18.135c-5.056,4.962-13.176,4.885-18.136-0.171c-1.099-1.118-1.948-2.388-2.555-3.738l-5.575-0.325&#10;&#9;&#9;&#9;&#9;&#9;L264.707,113.773z" id="el_w00wfbVNkLo"/>
			</g>
		</g>
		<text font-family="'FamiliarPro-Bold'" font-size="9.1022" id="el_CVD_EKN3Uwr">&lt; / &gt;</text>
	</g>
	<g id="el_GZmjndLb9Nm_cHyu2JE6m" data-animator-group="true" data-animator-type="0"><g id="el_GZmjndLb9Nm">
		<path d="M227.705,193.393h-1.389c-3.434,0-6.246-2.813-6.246-6.247v-14.233c0-3.435,2.813-6.245,6.246-6.245h1.389&#10;&#9;&#9;&#9;c3.438,0,6.25,2.811,6.25,6.245v14.233C233.955,190.58,231.143,193.393,227.705,193.393z" id="el_Ii1gcKGnYqa"/>
		<path d="M227.011,173.606L227.011,173.606c-0.953,0-1.734-0.78-1.734-1.735l0,0c0-0.954,0.781-1.733,1.734-1.733&#10;&#9;&#9;&#9;l0,0c0.957,0,1.738,0.779,1.738,1.733l0,0C228.749,172.826,227.968,173.606,227.011,173.606z" id="el_0_NTg8N6SCR"/>
	</g></g>
	<g id="el_L60I5qU5g4f">
		<path d="M209.436,174.676h-4.506c-0.691,0-1.256-0.563-1.256-1.253v-0.144c0-0.692,0.564-1.257,1.256-1.257h4.506&#10;&#9;&#9;&#9;c0.69,0,1.257,0.564,1.257,1.257v0.144C210.692,174.112,210.126,174.676,209.436,174.676z" id="el_gQcjMGNGJ7Y"/>
		<g id="el_NwuKjWYSYt8">
			<path d="M159.473,164.296h-12.096c-0.3,0-0.546-0.245-0.546-0.544v-0.75c0-0.301,0.246-0.547,0.546-0.547h12.096&#10;&#9;&#9;&#9;&#9;c0.3,0,0.545,0.246,0.545,0.547v0.75C160.018,164.051,159.773,164.296,159.473,164.296z" id="el_GhAn9CbtLuL"/>
			<path d="M168.912,164.478h-4.994c-0.557,0-1.012-0.455-1.012-1.012l0,0c0-0.558,0.455-1.011,1.012-1.011h4.994&#10;&#9;&#9;&#9;&#9;c0.557,0,1.012,0.453,1.012,1.011l0,0C169.923,164.022,169.468,164.478,168.912,164.478z" id="el_PIVhHMM2gyz"/>
			<path d="M178.657,164.478h-4.995c-0.556,0-1.012-0.455-1.012-1.012l0,0c0-0.558,0.456-1.011,1.012-1.011h4.995&#10;&#9;&#9;&#9;&#9;c0.556,0,1.011,0.453,1.011,1.011l0,0C179.668,164.022,179.213,164.478,178.657,164.478z" id="el_2T1YiRUDjJI"/>
			<path d="M188.499,164.634h-4.995c-0.557,0-1.01-0.456-1.01-1.014l0,0c0-0.555,0.453-1.012,1.01-1.012h4.995&#10;&#9;&#9;&#9;&#9;c0.556,0,1.012,0.457,1.012,1.012l0,0C189.511,164.178,189.055,164.634,188.499,164.634z" id="el_FcIS3ftKN3A"/>
			<path d="M198.62,164.468h-4.992c-0.559,0-1.013-0.456-1.013-1.011l0,0c0-0.558,0.454-1.012,1.013-1.012h4.992&#10;&#9;&#9;&#9;&#9;c0.557,0,1.014,0.454,1.014,1.012l0,0C199.634,164.012,199.177,164.468,198.62,164.468z" id="el_54Y3t-ftx3k"/>
			<path d="M209.798,164.407h-6.358c-0.54,0-0.982-0.44-0.982-0.98l0,0c0-0.54,0.442-0.981,0.982-0.981h6.358&#10;&#9;&#9;&#9;&#9;c0.539,0,0.98,0.441,0.98,0.981l0,0C210.778,163.967,210.337,164.407,209.798,164.407z" id="el_Ogl09TQYsdX"/>
			<path d="M152.593,169.265h-4.506c-0.691,0-1.256-0.563-1.256-1.252v-0.145c0-0.691,0.565-1.257,1.256-1.257h4.506&#10;&#9;&#9;&#9;&#9;c0.69,0,1.256,0.565,1.256,1.257v0.145C153.849,168.701,153.283,169.265,152.593,169.265z" id="el__sYhdr9P2jo"/>
			<path d="M162.337,169.265h-4.505c-0.692,0-1.257-0.563-1.257-1.252v-0.145c0-0.691,0.565-1.257,1.257-1.257h4.505&#10;&#9;&#9;&#9;&#9;c0.691,0,1.256,0.565,1.256,1.257v0.145C163.593,168.701,163.028,169.265,162.337,169.265z" id="el_8PKlDP9PthH"/>
			<path d="M171.633,169.473h-4.506c-0.691,0-1.256-0.567-1.256-1.256v-0.146c0-0.691,0.565-1.257,1.256-1.257h4.506&#10;&#9;&#9;&#9;&#9;c0.69,0,1.256,0.565,1.256,1.257v0.146C172.889,168.905,172.323,169.473,171.633,169.473z" id="el_RG6FACPeTxg"/>
			<path d="M181.755,169.254h-4.506c-0.691,0-1.256-0.565-1.256-1.257v-0.141c0-0.691,0.564-1.258,1.256-1.258h4.506&#10;&#9;&#9;&#9;&#9;c0.69,0,1.256,0.566,1.256,1.258v0.141C183.011,168.688,182.445,169.254,181.755,169.254z" id="el_35vRcG1z1Vw"/>
			<path d="M191.598,169.254h-4.506c-0.692,0-1.258-0.565-1.258-1.257v-0.141c0-0.691,0.565-1.258,1.258-1.258h4.506&#10;&#9;&#9;&#9;&#9;c0.69,0,1.255,0.566,1.255,1.258v0.141C192.853,168.688,192.288,169.254,191.598,169.254z" id="el_xR7-K7dfsar"/>
			<path d="M200.345,169.254h-4.505c-0.69,0-1.256-0.565-1.256-1.257v-0.141c0-0.691,0.565-1.258,1.256-1.258h4.505&#10;&#9;&#9;&#9;&#9;c0.691,0,1.257,0.566,1.257,1.258v0.141C201.602,168.688,201.036,169.254,200.345,169.254z" id="el_gCRWMrGBART"/>
			<path d="M209.311,169.13h-4.505c-0.689,0-1.254-0.564-1.254-1.255v-0.143c0-0.691,0.564-1.256,1.254-1.256h4.505&#10;&#9;&#9;&#9;&#9;c0.692,0,1.258,0.564,1.258,1.256v0.143C210.568,168.565,210.003,169.13,209.311,169.13z" id="el_8WQRxNdfQqu"/>
			<path d="M152.774,174.701h-4.505c-0.691,0-1.256-0.566-1.256-1.257v-0.143c0-0.691,0.565-1.256,1.256-1.256h4.505&#10;&#9;&#9;&#9;&#9;c0.69,0,1.256,0.564,1.256,1.256v0.143C154.031,174.135,153.465,174.701,152.774,174.701z" id="el_6wWnoTmy7_6"/>
			<path d="M162.519,174.701h-4.505c-0.691,0-1.256-0.566-1.256-1.257v-0.143c0-0.691,0.565-1.256,1.256-1.256h4.505&#10;&#9;&#9;&#9;&#9;c0.691,0,1.256,0.564,1.256,1.256v0.143C163.775,174.135,163.21,174.701,162.519,174.701z" id="el_jShOsQuY91L"/>
			<path d="M159.008,179.216h-11.124c-0.734,0-1.333-0.601-1.333-1.334l0,0c0-0.733,0.599-1.333,1.333-1.333h11.124&#10;&#9;&#9;&#9;&#9;c0.733,0,1.333,0.6,1.333,1.333l0,0C160.341,178.615,159.741,179.216,159.008,179.216z" id="el_EDP-XBsW3Zz"/>
			<path d="M159.189,183.563h-11.123c-0.734,0-1.333-0.602-1.333-1.335l0,0c0-0.734,0.599-1.335,1.333-1.335h11.123&#10;&#9;&#9;&#9;&#9;c0.734,0,1.334,0.601,1.334,1.335l0,0C160.523,182.961,159.923,183.563,159.189,183.563z" id="el_qGX67VUsr_l"/>
			<path d="M188.345,183.377h-24.331c-0.683,0-1.242-0.557-1.242-1.241l0,0c0-0.682,0.559-1.243,1.242-1.243h24.331&#10;&#9;&#9;&#9;&#9;c0.683,0,1.239,0.562,1.239,1.243l0,0C189.584,182.82,189.027,183.377,188.345,183.377z" id="el_NT9hGRMqQeb"/>
			<path d="M171.814,174.905h-4.505c-0.691,0-1.256-0.565-1.256-1.257v-0.144c0-0.691,0.565-1.257,1.256-1.257h4.505&#10;&#9;&#9;&#9;&#9;c0.691,0,1.257,0.565,1.257,1.257v0.144C173.071,174.34,172.506,174.905,171.814,174.905z" id="el_iNOQhdSZaZ7"/>
			<path d="M168.352,178.939h-4.506c-0.69,0-1.256-0.564-1.256-1.257v-0.141c0-0.69,0.565-1.257,1.256-1.257h4.506&#10;&#9;&#9;&#9;&#9;c0.691,0,1.257,0.566,1.257,1.257v0.141C169.608,178.375,169.043,178.939,168.352,178.939z" id="el_n1CXSAp93d1"/>
			<path d="M181.937,174.688h-4.506c-0.69,0-1.256-0.565-1.256-1.254v-0.146c0-0.69,0.565-1.256,1.256-1.256h4.506&#10;&#9;&#9;&#9;&#9;c0.69,0,1.256,0.565,1.256,1.256v0.146C183.192,174.122,182.627,174.688,181.937,174.688z" id="el_QYgaj3y7aaB"/>
			<path d="M191.779,174.688h-4.506c-0.689,0-1.256-0.565-1.256-1.254v-0.146c0-0.69,0.566-1.256,1.256-1.256h4.506&#10;&#9;&#9;&#9;&#9;c0.689,0,1.255,0.565,1.255,1.256v0.146C193.034,174.122,192.469,174.688,191.779,174.688z" id="el_EgEWZxbr8yc"/>
			<path d="M200.527,174.688h-4.506c-0.689,0-1.255-0.565-1.255-1.254v-0.146c0-0.69,0.565-1.256,1.255-1.256h4.506&#10;&#9;&#9;&#9;&#9;c0.692,0,1.257,0.565,1.257,1.256v0.146C201.784,174.122,201.22,174.688,200.527,174.688z" id="el_sLrnVxEnsHM"/>
			<path d="M209.235,183.103h-7.751c-0.669,0-1.214-0.546-1.214-1.215l0,0c0-0.667,0.545-1.212,1.214-1.212h7.751&#10;&#9;&#9;&#9;&#9;c0.67,0,1.213,0.545,1.213,1.212l0,0C210.448,182.557,209.905,183.103,209.235,183.103z" id="el_6mKeckKQsUO"/>
			<path d="M178.691,179.066h-4.505c-0.691,0-1.257-0.565-1.257-1.258v-0.143c0-0.691,0.565-1.254,1.257-1.254h4.505&#10;&#9;&#9;&#9;&#9;c0.69,0,1.257,0.563,1.257,1.254v0.143C179.948,178.501,179.382,179.066,178.691,179.066z" id="el_o8BmFZb3NwK"/>
			<path d="M188.535,179.066h-4.508c-0.69,0-1.255-0.565-1.255-1.258v-0.143c0-0.691,0.564-1.254,1.255-1.254h4.508&#10;&#9;&#9;&#9;&#9;c0.69,0,1.255,0.563,1.255,1.254v0.143C189.79,178.501,189.226,179.066,188.535,179.066z" id="el_PoCK0W2GAnx"/>
			<path d="M197.283,179.066h-4.507c-0.688,0-1.257-0.565-1.257-1.258v-0.143c0-0.691,0.568-1.254,1.257-1.254h4.507&#10;&#9;&#9;&#9;&#9;c0.691,0,1.256,0.563,1.256,1.254v0.143C198.539,178.501,197.975,179.066,197.283,179.066z" id="el_koojd2VpTux"/>
			<path d="M196.919,183.258h-4.507c-0.691,0-1.257-0.566-1.257-1.258v-0.143c0-0.689,0.565-1.254,1.257-1.254h4.507&#10;&#9;&#9;&#9;&#9;c0.69,0,1.256,0.564,1.256,1.254V182C198.175,182.691,197.609,183.258,196.919,183.258z" id="el_AFv0pemUDpz"/>
			<path d="M209.34,178.942h-7.579c-0.701,0-1.274-0.572-1.274-1.274l0,0c0-0.697,0.573-1.271,1.274-1.271h7.579&#10;&#9;&#9;&#9;&#9;c0.7,0,1.272,0.573,1.272,1.271l0,0C210.612,178.37,210.04,178.942,209.34,178.942z" id="el_AuFzUNmirR6"/>
		</g>
	</g>
	<text font-family="'FamiliarPro-Bold'" font-size="5.0156" id="el_NGlVSQ0gXXP">ABC</text>
	<path d="M183.141,136.507L183.141,136.507c-1.616,0-2.937-1.32-2.937-2.937l0,0c0-1.616,1.32-2.938,2.937-2.938l0,0&#10;&#9;&#9;c1.614,0,2.935,1.321,2.935,2.938l0,0C186.075,135.187,184.755,136.507,183.141,136.507z" id="el_ypxWb7zwHlD"/>
</g>
<g id="el_XZEm6WPjeYC">
	<g id="el__Gkeb-LGxBN">
		<path d="M247.335,77.342c-1.385-2.006-3.191-3.573-5.199-4.919c-3.089-2.073-6.474-3.508-10.01-4.601&#10;&#9;&#9;&#9;c-4.915-1.519-9.959-2.302-15.089-2.56c-4.813-0.238-9.609-0.011-14.376,0.754c-3.575,0.574-7.072,1.435-10.466,2.705&#10;&#9;&#9;&#9;c-3.112,1.163-6.065,2.623-8.709,4.654c-1.738,1.337-3.268,2.873-4.388,4.778c-1.247,2.127-1.775,4.399-1.336,6.854&#10;&#9;&#9;&#9;c0.327,1.842,1.152,3.461,2.287,4.931c1.387,1.804,3.104,3.245,5.001,4.482c3.245,2.131,6.794,3.583,10.501,4.662&#10;&#9;&#9;&#9;c5.851,1.708,11.838,2.421,17.92,2.429c2.317,0.009,4.629-0.113,6.934-0.338c3.452-0.338,6.86-0.938,10.204-1.863&#10;&#9;&#9;&#9;c3.712-1.025,7.278-2.406,10.571-4.43c2.186-1.34,4.168-2.913,5.731-4.957c1.537-2,2.481-4.224,2.423-6.798&#10;&#9;&#9;&#9;C249.289,80.984,248.541,79.083,247.335,77.342z M201.719,88.058L201.719,88.058c-1.151,0.679-2.438,0.935-3.756,0.986&#10;&#9;&#9;&#9;c-1.594,0.064-3.193,0.048-4.788,0.064c-0.11,0.004-0.225,0-0.36,0c-0.275,1.432-0.547,2.821-0.817,4.213&#10;&#9;&#9;&#9;c-0.057,0.285-0.103,0.572-0.174,0.851c-0.016,0.065-0.112,0.152-0.171,0.152c-1.353,0.011-2.707,0.002-4.064,0&#10;&#9;&#9;&#9;c-0.016,0-0.034-0.013-0.067-0.025c1.271-6.537,2.541-13.071,3.818-19.637c0.101,0,0.19,0,0.285,0&#10;&#9;&#9;&#9;c2.679,0,5.361-0.002,8.039,0.002c0.919,0,1.828,0.097,2.71,0.354c2.358,0.68,3.764,2.349,3.829,4.828&#10;&#9;&#9;&#9;C206.294,83.416,204.838,86.213,201.719,88.058z M220.222,88.844L220.222,88.844c-0.018,0.081-0.039,0.163-0.063,0.253&#10;&#9;&#9;&#9;c-1.426,0-2.839,0-4.303,0c0.069-0.372,0.14-0.734,0.208-1.095c0.505-2.601,1.016-5.2,1.507-7.804&#10;&#9;&#9;&#9;c0.069-0.38,0.06-0.779,0.034-1.171c-0.031-0.465-0.304-0.804-0.756-0.948c-0.343-0.105-0.705-0.205-1.062-0.211&#10;&#9;&#9;&#9;c-1.296-0.029-2.594-0.02-3.895-0.022c-0.026,0-0.052,0.013-0.104,0.022c-0.187,0.974-0.38,1.95-0.57,2.926&#10;&#9;&#9;&#9;c-0.521,2.702-1.046,5.407-1.571,8.108c-0.027,0.136-0.062,0.213-0.229,0.211c-1.303-0.008-2.613-0.004-3.92-0.004&#10;&#9;&#9;&#9;c-0.035,0-0.069-0.011-0.139-0.028c0.115-0.582,0.221-1.159,0.335-1.732c1.039-5.348,2.077-10.696,3.119-16.042&#10;&#9;&#9;&#9;c0.104-0.563,0.212-1.121,0.332-1.677c0.016-0.071,0.116-0.177,0.177-0.18c1.354-0.011,2.705-0.007,4.104-0.007&#10;&#9;&#9;&#9;c-0.336,1.744-0.671,3.459-1.012,5.222c0.12,0,0.216,0,0.313,0c1.57,0.016,3.138,0.009,4.708,0.055&#10;&#9;&#9;&#9;c0.936,0.026,1.852,0.203,2.723,0.577c1.257,0.541,1.856,1.525,1.934,2.867c0.048,0.846-0.117,1.672-0.28,2.494&#10;&#9;&#9;&#9;C221.279,83.387,220.754,86.114,220.222,88.844z M235.21,88.035L235.21,88.035c-1.16,0.702-2.472,0.958-3.803,1.009&#10;&#9;&#9;&#9;c-1.596,0.064-3.195,0.056-4.791,0.056c-0.282,0-0.373,0.09-0.421,0.356c-0.291,1.55-0.603,3.099-0.896,4.646&#10;&#9;&#9;&#9;c-0.026,0.143-0.048,0.235-0.234,0.235c-1.333-0.01-2.668-0.006-4.002-0.01c-0.02,0-0.039-0.011-0.087-0.022&#10;&#9;&#9;&#9;c1.271-6.542,2.54-13.08,3.816-19.643c0.112,0,0.201,0,0.296,0c2.67,0,5.343-0.002,8.015,0.002c1.022,0,2.032,0.108,3.006,0.444&#10;&#9;&#9;&#9;c2.125,0.736,3.396,2.206,3.523,4.469C239.833,83.25,238.389,86.116,235.21,88.035z" id="el_tbxtsyTLmEz"/>
		<path d="M200.071,78.029c-0.496-0.128-1.011-0.213-1.519-0.229c-1.088-0.039-2.18-0.016-3.274-0.032&#10;&#9;&#9;&#9;c-0.22-0.003-0.28,0.077-0.317,0.276c-0.34,1.786-0.691,3.569-1.038,5.356c-0.165,0.852-0.325,1.698-0.499,2.601&#10;&#9;&#9;&#9;c0.634,0,1.221,0.02,1.804-0.003c0.857-0.03,1.72-0.035,2.566-0.147c1.262-0.165,2.336-0.708,3-1.862&#10;&#9;&#9;&#9;c0.698-1.208,1-2.53,0.936-3.916C201.677,78.958,201.146,78.313,200.071,78.029z" id="el_wvq9afW3QCA"/>
		<path d="M233.477,78.015c-0.483-0.125-0.99-0.199-1.486-0.215c-1.094-0.039-2.185-0.016-3.272-0.032&#10;&#9;&#9;&#9;c-0.215-0.003-0.263,0.087-0.3,0.269c-0.381,1.978-0.767,3.953-1.153,5.929c-0.13,0.668-0.254,1.331-0.391,2.035&#10;&#9;&#9;&#9;c0.214,0,0.389,0.006,0.563,0c1.266-0.044,2.54-0.023,3.798-0.152c1.298-0.136,2.386-0.729,3.055-1.921&#10;&#9;&#9;&#9;c0.657-1.172,0.946-2.45,0.899-3.789C235.151,78.963,234.617,78.316,233.477,78.015z" id="el_fxwO2FgKkEk"/>
	</g>
</g>
<script>(function(){var a=document.querySelector('#el_bUPpRVa_p'),b=a.querySelectorAll('style'),c=function(d){b.forEach(function(f){var g=f.textContent;g&amp;&amp;(f.textContent=g.replace(/transform-box:[^;\r\n]*/gi,'transform-box: '+d))})};c('initial'),window.requestAnimationFrame(function(){return c('fill-box')})})();</script></svg>